<mxfile host="app.diagrams.net" modified="2024-02-16T01:56:45.470Z" agent="Mozilla/5.0 (Macintosh; Intel Mac OS X 10_15_7) AppleWebKit/537.36 (KHTML, like Gecko) Chrome/121.0.0.0 Safari/537.36" etag="-i6-UZL4zrlXz217vWTb" version="23.1.1" type="github">
  <diagram name="Page-1" id="PgdNSw2QwuKIeZ5lU9t1">
    <mxGraphModel dx="2304" dy="1244" grid="1" gridSize="14" guides="1" tooltips="1" connect="1" arrows="1" fold="1" page="1" pageScale="1" pageWidth="850" pageHeight="1100" math="0" shadow="0">
      <root>
        <mxCell id="0" />
        <mxCell id="1" parent="0" />
      </root>
    </mxGraphModel>
  </diagram>
</mxfile>
